<svg width="34.000000" height="34.000000" viewBox="0 0 34 34" fill="none" xmlns="http://www.w3.org/2000/svg" xmlns:xlink="http://www.w3.org/1999/xlink">
	<desc>
			Created with Pixso.
	</desc>
	<defs>
		<clipPath id="clip109_1734">
			<rect id="Bold Duotone / Users / User Plus Rounded" width="34.000000" height="34.000000" fill="white" fill-opacity="0"/>
		</clipPath>
	</defs>
	<g clip-path="url(#clip109_1734)">
		<circle id="Vector" cx="17.000000" cy="8.500000" r="5.666667" fill="#A208C9" fill-opacity="1.000000"/>
		<g opacity="0.500000">
			<path id="Subtract" d="M25.6338 21.2949C25.0322 21.25 24.2939 21.25 23.375 21.25C21.0371 21.25 19.8682 21.25 19.1426 21.9766C18.416 22.7021 18.416 23.8711 18.416 26.209C18.416 27.8613 18.416 28.9297 18.6729 29.6699C18.1289 29.7227 17.5703 29.75 17 29.75C11.5225 29.75 7.08301 27.2129 7.08301 24.084C7.08301 20.9541 11.5225 18.417 17 18.417C20.7021 18.417 23.9307 19.5762 25.6338 21.2949Z" fill="#A208C9" fill-opacity="1.000000" fill-rule="nonzero"/>
		</g>
		<path id="Vector" d="M23.375 31.167C21.0381 31.167 19.8691 31.167 19.1436 30.4404C18.417 29.7148 18.417 28.5459 18.417 26.208C18.417 23.8711 18.417 22.7021 19.1436 21.9766C19.8691 21.25 21.0381 21.25 23.375 21.25C25.7129 21.25 26.8818 21.25 27.6074 21.9766C28.334 22.7021 28.334 23.8711 28.334 26.208C28.334 28.5459 28.334 29.7148 27.6074 30.4404C26.8818 31.167 25.7129 31.167 23.375 31.167ZM24.2021 24.0049C24.2021 23.5479 23.832 23.1787 23.375 23.1787C22.9189 23.1787 22.5488 23.5479 22.5488 24.0049L22.5488 25.3818L21.1719 25.3818C20.7148 25.3818 20.3457 25.752 20.3457 26.208C20.3457 26.665 20.7148 27.0352 21.1719 27.0352L22.5488 27.0352L22.5488 28.4121C22.5488 28.8682 22.9189 29.2383 23.375 29.2383C23.832 29.2383 24.2021 28.8682 24.2021 28.4121L24.2021 27.0352L25.5791 27.0352C26.0352 27.0352 26.4053 26.665 26.4053 26.208C26.4053 25.752 26.0352 25.3818 25.5791 25.3818L24.2021 25.3818L24.2021 24.0049Z" fill="#A208C9" fill-opacity="1.000000" fill-rule="evenodd"/>
	</g>
</svg>
