<svg width="39.000000" height="39.000000" viewBox="0 0 39 39" fill="none" xmlns="http://www.w3.org/2000/svg" xmlns:xlink="http://www.w3.org/1999/xlink">
	<desc>
			Created with Pixso.
	</desc>
	<defs>
		<clipPath id="clip124_1240">
			<rect id="Bold Duotone / Time / Calendar" rx="5.000000" width="39.000000" height="39.000000" fill="white" fill-opacity="0"/>
		</clipPath>
	</defs>
	<g clip-path="url(#clip124_1240)">
		<path id="Vector" d="M12.502 4.42676C12.502 3.77686 11.9541 3.25 11.2783 3.25C10.6025 3.25 10.0547 3.77686 10.0547 4.42676L10.0547 6.9043C7.70605 7.08545 6.16504 7.5293 5.03223 8.61816C3.89941 9.70752 3.43848 11.1899 3.25 13.4482L3.25 14.625L4.75195 14.625L35.75 14.625L35.6201 13.4482C35.4326 11.1899 34.9707 9.70752 33.8379 8.61816C32.7061 7.5293 31.1641 7.08545 28.8164 6.9043L28.8164 4.42676C28.8164 3.77686 28.2686 3.25 27.5928 3.25C26.917 3.25 26.3691 3.77686 26.3691 4.42676L26.3691 6.80029C25.2832 6.78027 24.0674 6.78027 22.6982 6.78027L16.1719 6.78027C14.8037 6.78027 13.5869 6.78027 12.502 6.80029L12.502 4.42676Z" fill="#A208C9" fill-opacity="1.000000" fill-rule="evenodd"/>
		<g opacity="0.500000">
			<path id="Vector" d="M35.75 22.75L35.75 19.5C35.75 18.1367 35.7441 15.7061 35.7236 14.625L3.26562 14.625C3.24414 15.7061 3.25 18.1367 3.25 19.5L3.25 22.75C3.25 28.8784 3.25 31.9424 5.15332 33.8462C7.05762 35.75 10.1211 35.75 16.25 35.75L22.75 35.75C28.8779 35.75 31.9424 35.75 33.8457 33.8462C35.75 31.9424 35.75 28.8784 35.75 22.75Z" fill="#A208C9" fill-opacity="1.000000" fill-rule="nonzero"/>
		</g>
		<path id="Vector" d="M27.625 22.75C28.5225 22.75 29.25 22.0225 29.25 21.125C29.25 20.2275 28.5225 19.5 27.625 19.5C26.7275 19.5 26 20.2275 26 21.125C26 22.0225 26.7275 22.75 27.625 22.75ZM27.625 29.25C28.5225 29.25 29.25 28.5225 29.25 27.625C29.25 26.7275 28.5225 26 27.625 26C26.7275 26 26 26.7275 26 27.625C26 28.5225 26.7275 29.25 27.625 29.25Z" fill="#A208C9" fill-opacity="1.000000" fill-rule="evenodd"/>
		<path id="Vector" d="M19.5 22.75C20.3975 22.75 21.125 22.0225 21.125 21.125C21.125 20.2275 20.3975 19.5 19.5 19.5C18.6025 19.5 17.875 20.2275 17.875 21.125C17.875 22.0225 18.6025 22.75 19.5 22.75ZM19.5 29.25C20.3975 29.25 21.125 28.5225 21.125 27.625C21.125 26.7275 20.3975 26 19.5 26C18.6025 26 17.875 26.7275 17.875 27.625C17.875 28.5225 18.6025 29.25 19.5 29.25Z" fill="#A208C9" fill-opacity="1.000000" fill-rule="evenodd"/>
		<path id="Vector" d="M11.375 22.75C12.2725 22.75 13 22.0225 13 21.125C13 20.2275 12.2725 19.5 11.375 19.5C10.4775 19.5 9.75 20.2275 9.75 21.125C9.75 22.0225 10.4775 22.75 11.375 22.75ZM11.375 29.25C12.2725 29.25 13 28.5225 13 27.625C13 26.7275 12.2725 26 11.375 26C10.4775 26 9.75 26.7275 9.75 27.625C9.75 28.5225 10.4775 29.25 11.375 29.25Z" fill="#A208C9" fill-opacity="1.000000" fill-rule="evenodd"/>
	</g>
</svg>
