<svg width="24.000000" height="24.000000" viewBox="0 0 24 24" fill="none" xmlns="http://www.w3.org/2000/svg" xmlns:xlink="http://www.w3.org/1999/xlink">
	<defs>
		<clipPath id="clip136_3755">
			<rect id="Bold Duotone / Essentional, UI / Trash Bin Minimalistic" width="24.000000" height="24.000000" fill="white" fill-opacity="0"/>
		</clipPath>
	</defs>
	<g clip-path="url(#clip136_3755)">
		<path id="Vector" d="M3 6.52344C3 6.12891 3.32666 5.80957 3.72974 5.80957L8.51782 5.80957C8.52441 4.96875 8.61548 3.81543 9.45044 3.0166C10.1074 2.38867 11.0081 2 12 2C12.9919 2 13.8926 2.38867 14.5496 3.0166C15.3845 3.81543 15.4756 4.96875 15.4822 5.80957L20.2703 5.80957C20.6733 5.80957 21 6.12891 21 6.52344C21 6.91797 20.6733 7.23828 20.2703 7.23828L3.72974 7.23828C3.32666 7.23828 3 6.91797 3 6.52344Z" fill="#FFFFFF" fill-opacity="1.000000" fill-rule="nonzero"/>
		<g opacity="0.500000">
			<path id="Vector" d="M11.5957 22.001L12.4043 22.001C15.187 22.001 16.5784 22.001 17.4832 21.1143C18.3877 20.2285 18.4802 18.7754 18.6655 15.8691L18.9321 11.6816C19.0325 10.1045 19.0828 9.31543 18.6289 8.81641C18.175 8.31641 17.4087 8.31641 15.876 8.31641L8.12402 8.31641C6.59131 8.31641 5.82495 8.31641 5.37109 8.81641C4.91724 9.31543 4.96753 10.1045 5.06787 11.6816L5.33447 15.8691C5.51978 18.7754 5.6123 20.2285 6.51685 21.1143C7.42163 22.001 8.81299 22.001 11.5957 22.001Z" fill="#FFFFFF" fill-opacity="1.000000" fill-rule="nonzero"/>
		</g>
		<path id="Vector" d="M10.2463 12.1885C10.2051 11.7549 9.83765 11.4385 9.42554 11.4814C9.01318 11.5244 8.71265 11.9121 8.75366 12.3457L9.25366 17.6084C9.29492 18.043 9.6626 18.3594 10.0747 18.3154C10.4868 18.2725 10.7876 17.8857 10.7463 17.4521L10.2463 12.1885ZM15.2463 12.3457C15.2876 11.9121 14.9868 11.5244 14.5747 11.4814C14.1626 11.4385 13.7949 11.7549 13.7537 12.1885L13.2537 17.4521C13.2126 17.8857 13.5132 18.2725 13.9255 18.3154C14.3376 18.3594 14.7051 18.043 14.7463 17.6084L15.2463 12.3457Z" fill="#FFFFFF" fill-opacity="1.000000" fill-rule="evenodd"/>
	</g>
</svg>
