<svg width="24.000000" height="24.000000" viewBox="0 0 24 24" fill="none" xmlns="http://www.w3.org/2000/svg" xmlns:xlink="http://www.w3.org/1999/xlink">
	<desc>
			Created with Pixso.
	</desc>
	<defs>
		<clipPath id="clip135_3099">
			<rect id="Bold Duotone / Check" width="24.000000" height="24.000000" fill="white" fill-opacity="0"/>
		</clipPath>
	</defs>
	<g clip-path="url(#clip135_3099)">
		<g opacity="0.500000">
			<path id="Subtract" d="M2 12C2 6.47754 6.47705 2 12 2C17.5229 2 22 6.47754 22 12C22 17.5225 17.5229 22 12 22C6.47705 22 2 17.5225 2 12Z" fill="#A208C9" fill-opacity="1.000000" fill-rule="evenodd"/>
		</g>
		<path id="Subtract" d="M16.9854 9.23828C17.3032 9.55664 17.3032 10.0713 16.9854 10.3896L11.5596 15.8154C11.2417 16.1328 10.7266 16.1328 10.4087 15.8154L8.23828 13.6445C7.92041 13.3271 7.92041 12.8115 8.23828 12.4941C8.55615 12.1758 9.07129 12.1758 9.38916 12.4941L10.9844 14.0889L15.8345 9.23828C16.1523 8.9209 16.6675 8.9209 16.9854 9.23828Z" fill="#A208C9" fill-opacity="1.000000" fill-rule="evenodd"/>
	</g>
</svg>
