<svg width="24.000000" height="24.000000" viewBox="0 0 24 24" fill="none" xmlns="http://www.w3.org/2000/svg" xmlns:xlink="http://www.w3.org/1999/xlink">
	<defs>
		<clipPath id="clip136_3751">
			<rect id="Bold Duotone / Messages, Conversation / Pen 3" width="24.000000" height="24.000000" fill="white" fill-opacity="0"/>
		</clipPath>
	</defs>
	<g clip-path="url(#clip136_3751)">
		<g opacity="0.500000">
			<path id="Vector" d="M3.25 22C3.25 21.5859 3.58569 21.25 4 21.25L20 21.25C20.4143 21.25 20.75 21.5859 20.75 22C20.75 22.4141 20.4143 22.75 20 22.75L4 22.75C3.58569 22.75 3.25 22.4141 3.25 22Z" fill="#FFFFFF" fill-opacity="1.000000" fill-rule="evenodd"/>
		</g>
		<g opacity="0.500000">
			<path id="Vector" d="M19.0806 2.92188C20.3096 4.15039 20.3096 6.14258 19.0806 7.37207L18.3708 8.08203C18.3416 8.07227 18.312 8.06152 18.282 8.05176C17.532 7.79102 16.5491 7.30078 15.6255 6.37695C14.7021 5.45312 14.2114 4.4707 13.9512 3.7207C13.9407 3.69043 13.9307 3.66113 13.9209 3.63184L14.6306 2.92188C15.8596 1.69238 17.8518 1.69238 19.0806 2.92188Z" fill="#FFFFFF" fill-opacity="1.000000" fill-rule="evenodd"/>
		</g>
		<path id="Vector" d="M13.9512 3.59961L13.9207 3.62988C13.9302 3.65918 13.9404 3.68945 13.9507 3.71973C14.2109 4.46973 14.7019 5.45215 15.6252 6.37598C16.5486 7.29883 17.5317 7.79004 18.2815 8.0498C18.3113 8.06055 18.3406 8.07031 18.3696 8.08008L11.5198 14.9297C11.0579 15.3916 10.8269 15.623 10.5725 15.8213C10.272 16.0557 9.94702 16.2568 9.60327 16.4199C9.31177 16.5596 9.00195 16.6621 8.38232 16.8691L5.11499 17.958C4.81006 18.0596 4.47388 17.9805 4.24658 17.7529C4.01929 17.5254 3.93994 17.1895 4.0415 16.8848L5.13086 13.6172C5.3374 12.998 5.44043 12.6875 5.57935 12.3965C5.74341 12.0527 5.94409 11.7275 6.17847 11.4277C6.37695 11.1729 6.60791 10.9414 7.06982 10.4805L13.9512 3.59961Z" fill="#FFFFFF" fill-opacity="1.000000" fill-rule="nonzero"/>
	</g>
</svg>
