<svg width="39.000000" height="39.078613" viewBox="0 0 39 39.0786" fill="none" xmlns="http://www.w3.org/2000/svg" xmlns:xlink="http://www.w3.org/1999/xlink">
	<desc>
			Created with Pixso.
	</desc>
	<defs>
		<clipPath id="clip124_1242">
			<rect id="Bold Duotone / Users / Users Group Two Rounded" width="39.000000" height="39.078789" fill="white" fill-opacity="0"/>
		</clipPath>
	</defs>
	<g clip-path="url(#clip124_1242)">
		<path id="Vector" d="M25.1875 12.2124C25.1875 15.3599 22.6416 17.9111 19.5 17.9111C16.3584 17.9111 13.8125 15.3599 13.8125 12.2124C13.8125 9.06494 16.3584 6.51318 19.5 6.51318C22.6416 6.51318 25.1875 9.06494 25.1875 12.2124Z" fill="#A208C9" fill-opacity="1.000000" fill-rule="nonzero"/>
		<g opacity="0.400000">
			<path id="Vector" d="M31.6875 12.2124C31.6875 14.4604 29.8691 16.2832 27.625 16.2832C25.3809 16.2832 23.5625 14.4604 23.5625 12.2124C23.5625 9.96436 25.3809 8.1416 27.625 8.1416C29.8691 8.1416 31.6875 9.96436 31.6875 12.2124Z" fill="#A208C9" fill-opacity="1.000000" fill-rule="nonzero"/>
		</g>
		<g opacity="0.400000">
			<path id="Vector" d="M7.3125 12.2124C7.3125 14.4604 9.13086 16.2832 11.375 16.2832C13.6191 16.2832 15.4375 14.4604 15.4375 12.2124C15.4375 9.96436 13.6191 8.1416 11.375 8.1416C9.13086 8.1416 7.3125 9.96436 7.3125 12.2124Z" fill="#A208C9" fill-opacity="1.000000" fill-rule="nonzero"/>
		</g>
		<path id="Vector" d="M29.25 26.8667C29.25 30.0142 24.8848 32.5654 19.5 32.5654C14.1152 32.5654 9.75 30.0142 9.75 26.8667C9.75 23.7192 14.1152 21.1675 19.5 21.1675C24.8848 21.1675 29.25 23.7192 29.25 26.8667Z" fill="#A208C9" fill-opacity="1.000000" fill-rule="nonzero"/>
		<g opacity="0.400000">
			<path id="Vector" d="M35.75 26.8667C35.75 29.1147 32.8398 30.9375 29.25 30.9375C25.6602 30.9375 22.75 29.1147 22.75 26.8667C22.75 24.6187 25.6602 22.7959 29.25 22.7959C32.8398 22.7959 35.75 24.6187 35.75 26.8667Z" fill="#A208C9" fill-opacity="1.000000" fill-rule="nonzero"/>
		</g>
		<g opacity="0.400000">
			<path id="Vector" d="M3.25 26.8667C3.25 29.1147 6.16016 30.9375 9.75 30.9375C13.3398 30.9375 16.25 29.1147 16.25 26.8667C16.25 24.6187 13.3398 22.7959 9.75 22.7959C6.16016 22.7959 3.25 24.6187 3.25 26.8667Z" fill="#A208C9" fill-opacity="1.000000" fill-rule="nonzero"/>
		</g>
	</g>
</svg>
