<svg width="39.000000" height="39.000000" viewBox="0 0 39 39" fill="none" xmlns="http://www.w3.org/2000/svg" xmlns:xlink="http://www.w3.org/1999/xlink">
	<desc>
			Created with Pixso.
	</desc>
	<defs>
		<clipPath id="clip124_1239">
			<rect id="Bold Duotone / Messages, Conversation / Square Forward" width="39.000000" height="39.000000" fill="white" fill-opacity="0"/>
		</clipPath>
	</defs>
	<g clip-path="url(#clip124_1239)">
		<g opacity="0.500000">
			<path id="Vector" d="M1.625 21.9858C1.625 14.4023 1.625 10.6104 3.98145 8.25439C6.33691 5.89844 10.1289 5.89844 17.7129 5.89844C25.2959 5.89844 29.0879 5.89844 31.4443 8.25439C33.7998 10.6104 33.7998 14.4023 33.7998 21.9858C33.7998 29.5698 33.7998 33.3613 31.4443 35.7173C29.0879 38.0732 25.2959 38.0732 17.7129 38.0732C10.1289 38.0732 6.33691 38.0732 3.98145 35.7173C1.625 33.3613 1.625 29.5698 1.625 21.9858Z" fill="#A208C9" fill-opacity="1.000000" fill-rule="nonzero"/>
		</g>
		<path id="Vector" d="M28.7139 3.09912L32.9277 6.75098C35.8281 9.26514 37.2783 10.522 37.2783 12.1543C37.2783 13.7866 35.8281 15.0435 32.9277 17.5576L28.7139 21.2095C27.4385 22.3145 26.8008 22.8672 26.2783 22.6289C25.7559 22.3901 25.7559 21.5464 25.7559 19.8584L25.7559 17.1338C21.4502 17.1338 16.8555 18.7393 14.0557 21.5205C13.2031 22.3677 12.7764 22.791 12.5498 22.6836C12.3232 22.5762 12.376 22.0288 12.4814 20.9346C13.5342 10.0122 20.7061 7.1748 25.7559 7.1748L25.7559 4.4502C25.7559 2.76221 25.7559 1.91846 26.2783 1.67969C26.8008 1.44141 27.4385 1.99414 28.7139 3.09912Z" fill="#A208C9" fill-opacity="1.000000" fill-rule="nonzero"/>
	</g>
</svg>
