<svg width="34.000000" height="34.000000" viewBox="0 0 34 34" fill="none" xmlns="http://www.w3.org/2000/svg" xmlns:xlink="http://www.w3.org/1999/xlink">
	<desc>
			Created with Pixso.
	</desc>
	<defs>
		<clipPath id="clip109_1739">
			<rect id="Bold Duotone / Messages, Conversation / Square Forward" width="34.000000" height="34.000000" fill="white" fill-opacity="0"/>
		</clipPath>
	</defs>
	<g clip-path="url(#clip109_1739)">
		<g opacity="0.500000">
			<path id="Vector" d="M1.41699 19.168C1.41699 12.5557 1.41699 9.25 3.4707 7.19629C5.52441 5.14258 8.83008 5.14258 15.4424 5.14258C22.0537 5.14258 25.3594 5.14258 27.4131 7.19629C29.4668 9.25 29.4668 12.5557 29.4668 19.168C29.4668 25.7793 29.4668 29.085 27.4131 31.1387C25.3594 33.1924 22.0537 33.1924 15.4424 33.1924C8.83008 33.1924 5.52441 33.1924 3.4707 31.1387C1.41699 29.085 1.41699 25.7793 1.41699 19.168Z" fill="#A208C9" fill-opacity="1.000000" fill-rule="nonzero"/>
		</g>
		<path id="Vector" d="M25.0322 2.70215L28.7061 5.88574C31.2344 8.07715 32.499 9.17285 32.499 10.5967C32.499 12.0195 31.2344 13.1152 28.7061 15.3066L25.0322 18.4902C23.9209 19.4541 23.3652 19.9355 22.9092 19.7275C22.4541 19.5195 22.4541 18.7842 22.4541 17.3125L22.4541 14.9375C18.6992 14.9375 14.6943 16.3369 12.2529 18.7617C11.5098 19.5 11.1387 19.8691 10.9404 19.7754C10.7422 19.6816 10.7891 19.2051 10.8809 18.251C11.7988 8.72949 18.0518 6.25488 22.4541 6.25488L22.4541 3.87988C22.4541 2.4082 22.4541 1.67285 22.9092 1.46484C23.3652 1.25684 23.9209 1.73828 25.0322 2.70215Z" fill="#A208C9" fill-opacity="1.000000" fill-rule="nonzero"/>
	</g>
</svg>
