<svg width="39.000000" height="39.078613" viewBox="0 0 39 39.0786" fill="none" xmlns="http://www.w3.org/2000/svg" xmlns:xlink="http://www.w3.org/1999/xlink">
	<defs>
		<clipPath id="clip124_1243">
			<rect id="Bold Duotone / Arrows Action / Login 3" rx="5.000000" width="39.000000" height="39.078789" fill="white" fill-opacity="0"/>
		</clipPath>
	</defs>
	<g clip-path="url(#clip124_1243)">
		<g opacity="0.600000">
			<path id="Vector" d="M22.75 3.25684L24.375 3.25684C28.9717 3.25684 31.2695 3.25684 32.6973 4.6875C34.125 6.11816 34.125 8.4209 34.125 13.0264L34.125 26.0527C34.125 30.6582 34.125 32.9609 32.6973 34.3916C31.2695 35.8223 28.9717 35.8223 24.375 35.8223L22.75 35.8223C18.1533 35.8223 15.8555 35.8223 14.4277 34.3916C13 32.9609 13 30.6582 13 26.0527L13 13.0264C13 8.4209 13 6.11816 14.4277 4.6875C15.8555 3.25684 18.1533 3.25684 22.75 3.25684Z" fill="#A208C9" fill-opacity="1.000000" fill-rule="evenodd"/>
		</g>
		<g opacity="0.400000">
			<path id="Vector" d="M13.2295 7.32715C13 8.69971 13 10.5225 13 13.0264L13 18.3179L13 20.7603L13 26.0522C13 28.5557 13 30.3789 13.2295 31.7515L13 31.7515C9.16992 31.7515 7.25488 31.7515 6.06445 30.5591C4.875 29.3667 4.875 27.4478 4.875 23.6099L4.875 15.4688C4.875 11.6309 4.875 9.71191 6.06445 8.51953C7.25488 7.32715 9.16992 7.32715 13 7.32715L13.2295 7.32715Z" fill="#A208C9" fill-opacity="1.000000" fill-rule="evenodd"/>
		</g>
		<path id="Vector" d="M23.6113 18.6758C24.0879 19.1528 24.0879 19.9258 23.6113 20.4028L20.3613 23.6592C19.8857 24.1362 19.1143 24.1362 18.6387 23.6592C18.1621 23.1826 18.1621 22.4092 18.6387 21.9321L19.8076 20.7607L8.125 20.7607C7.45215 20.7607 6.90625 20.2139 6.90625 19.5391C6.90625 18.8647 7.45215 18.3179 8.125 18.3179L19.8076 18.3179L18.6387 17.1465C18.1621 16.6694 18.1621 15.896 18.6387 15.4194C19.1143 14.9424 19.8857 14.9424 20.3613 15.4194L23.6113 18.6758Z" fill="#A208C9" fill-opacity="1.000000" fill-rule="evenodd"/>
	</g>
</svg>
