<svg width="40.000000" height="40.000000" viewBox="0 0 40 40" fill="none" xmlns="http://www.w3.org/2000/svg" xmlns:xlink="http://www.w3.org/1999/xlink">
	<desc>
			Created with Pixso.
	</desc>
	<defs>
		<clipPath id="clip124_1116">
			<rect id="Bold Duotone / Notifications / Bell " rx="5.000000" width="40.000000" height="40.000000" fill="white" fill-opacity="0"/>
		</clipPath>
	</defs>
	<g clip-path="url(#clip124_1116)">
		<g opacity="0.500000">
			<path id="Vector" d="M31.249 15L31.249 16.1738C31.249 17.582 31.6504 18.959 32.4033 20.1304L34.249 23.002C35.9355 25.625 34.6484 29.1899 31.7158 30.0195C24.0459 32.189 15.9541 32.189 8.28418 30.0195C5.35156 29.1899 4.06445 25.625 5.75098 23.002L7.59668 20.1304C8.34961 18.959 8.75098 17.582 8.75098 16.1738L8.75098 15C8.75098 8.55664 13.7871 3.3335 20 3.3335C26.2129 3.3335 31.249 8.55664 31.249 15Z" fill="#A208C9" fill-opacity="1.000000" fill-rule="nonzero"/>
		</g>
		<path id="Vector" d="M12.0723 30.9087C13.1572 34.2505 16.2969 36.6665 20 36.6665C23.7031 36.6665 26.8428 34.2505 27.9277 30.9087C22.6855 31.8926 17.3145 31.8926 12.0723 30.9087Z" fill="#A208C9" fill-opacity="1.000000" fill-rule="nonzero"/>
	</g>
</svg>
