<svg width="39.000000" height="39.000000" viewBox="0 0 39 39" fill="none" xmlns="http://www.w3.org/2000/svg" xmlns:xlink="http://www.w3.org/1999/xlink">
	<desc>
			Created with Pixso.
	</desc>
	<defs>
		<clipPath id="clip124_1244">
			<rect id="Bold Duotone / Settings, Fine Tuning / Settings" rx="5.000000" width="39.000000" height="39.000000" fill="white" fill-opacity="0"/>
		</clipPath>
	</defs>
	<g clip-path="url(#clip124_1244)">
		<g opacity="0.500000">
			<path id="Vector" d="M23.2031 3.49756C22.6016 3.25 21.8379 3.25 20.3125 3.25C18.7871 3.25 18.0234 3.25 17.4219 3.49756C16.6191 3.82715 15.9824 4.45996 15.6494 5.25635C15.498 5.61963 15.4385 6.04248 15.415 6.65918C15.3809 7.56543 14.9131 8.4043 14.1211 8.85791C13.3301 9.31104 12.3643 9.29443 11.5566 8.87061C11.0068 8.58203 10.6074 8.42188 10.2148 8.37061C9.35352 8.25781 8.48242 8.48926 7.79395 9.01416C7.27734 9.40771 6.89551 10.0635 6.13281 11.375C5.37012 12.6865 4.98828 13.3418 4.90332 13.9829C4.79004 14.8374 5.02344 15.7017 5.55176 16.3857C5.79297 16.6978 6.13281 16.96 6.65918 17.2886C7.43262 17.771 7.93066 18.5933 7.93066 19.5C7.93066 20.4067 7.43262 21.229 6.65918 21.7114C6.13184 22.0396 5.79297 22.3022 5.55176 22.6143C5.02344 23.2979 4.79004 24.1621 4.90332 25.0171C4.98828 25.6577 5.36914 26.3135 6.13281 27.625C6.89551 28.9365 7.27637 29.5923 7.79395 29.9858C8.48242 30.5103 9.35352 30.7422 10.2148 30.6294C10.6074 30.5781 11.0059 30.418 11.5557 30.1294C12.3643 29.7056 13.3301 29.689 14.1211 30.1421C14.9131 30.5957 15.3809 31.4346 15.415 32.3408C15.4385 32.9575 15.498 33.3804 15.6494 33.7437C15.9824 34.54 16.6191 35.1729 17.4219 35.5024C18.0234 35.75 18.7871 35.75 20.3125 35.75C21.8379 35.75 22.6016 35.75 23.2031 35.5024C24.0059 35.1729 24.6426 34.54 24.9756 33.7437C25.127 33.3804 25.1865 32.9575 25.21 32.3408C25.2441 31.4346 25.7119 30.5957 26.5029 30.1421C27.2949 29.6885 28.2607 29.7056 29.0693 30.1294C29.6191 30.4175 30.0176 30.5781 30.4102 30.6294C31.2715 30.7417 32.1426 30.5103 32.8311 29.9854C33.3477 29.5918 33.7295 28.9365 34.4922 27.625C35.2549 26.3135 35.6367 25.6577 35.7217 25.0166C35.835 24.1621 35.6016 23.2979 35.0732 22.6143C34.832 22.3018 34.4922 22.0396 33.9658 21.7114C33.1924 21.229 32.6943 20.4067 32.6943 19.5C32.6943 18.5928 33.1924 17.771 33.9658 17.2886C34.4922 16.9604 34.832 16.6978 35.0732 16.3857C35.6016 15.7021 35.835 14.8379 35.7217 13.9829C35.6367 13.3423 35.2559 12.6865 34.4922 11.375C33.7295 10.0635 33.3486 9.40771 32.8311 9.01416C32.1426 8.48975 31.2715 8.25781 30.4102 8.37061C30.0176 8.42188 29.6191 8.58203 29.0693 8.87061C28.2607 9.29443 27.2949 9.31152 26.5039 8.85791C25.7119 8.4043 25.2441 7.56543 25.21 6.65918C25.1865 6.04248 25.127 5.61963 24.9756 5.25635C24.6426 4.45996 24.0059 3.82715 23.2031 3.49756Z" fill="#A208C9" fill-opacity="1.000000" fill-rule="evenodd"/>
		</g>
		<path id="Vector" d="M25.2246 19.5C25.2246 22.1924 23.0254 24.375 20.3125 24.375C17.5996 24.375 15.4004 22.1924 15.4004 19.5C15.4004 16.8076 17.5996 14.625 20.3125 14.625C23.0254 14.625 25.2246 16.8076 25.2246 19.5Z" fill="#A208C9" fill-opacity="1.000000" fill-rule="nonzero"/>
	</g>
</svg>
